# xmcd
# 
# Track frame offsets:
#     150
#     3385
#     25162
#     45525
#     62040
#     83242
#     103412
#     122372
#     139715
#     160560
#     181552
# 
# Disc length: 2712
# 
# Revision: 6
# Processed by: cddbd v1.5.2PL0 Copyright (c) Steve Scherf et al.
# Submitted via: BonkEnc v1.0.8
# 
DISCID=7d0a960b
DTITLE=Motley Crue - Dr. Feelgood
DYEAR=1989
DGENRE=Rock
TTITLE0=T. N T. (Terror 'n Tinseltown)
TTITLE1=Dr. Feelgood
TTITLE2=Slice Of Your Pie
TTITLE3=Rattlesnake Shake
TTITLE4=Kickstart My Heart
TTITLE5=Without You
TTITLE6=Same Ol' Situation (S.O.S.)
TTITLE7=Sticky Sweet
TTITLE8=She Goes Down
TTITLE9=Don't Go Away Mad (Just Go Away)
TTITLE10=Time For Change
EXTD=
EXTT0=
EXTT1=
EXTT2=
EXTT3=
EXTT4=
EXTT5=
EXTT6=
EXTT7=
EXTT8=
EXTT9=
EXTT10=
PLAYORDER=
